<svg xmlns="http://www.w3.org/2000/svg" width="948.112" height="948.112"><path d="M39.068 674.506c-26.1 5-43.2 30.2-38.2 56.3 4.4 23 24.6 39 47.2 39 3 0 6.1-.3 9.1-.9l198-38c11.3-2.2 21.4-8.3 28.6-17.3l85-107.2-28.4-14.5c-21-10.6-35.6-29.8-40.6-53.1l-80.2 101.1-180.5 34.6z"/><circle cx="744.268" cy="151.106" r="105.4"/><path d="M514.268 124.706c-11.1-11.4-21.4-15.9-32.7-15.9-4.1 0-8.2.6-12.6 1.6l-180.9 42.9c-25 5.9-40.4 31-34.5 55.9 5.1 21.4 24.1 35.8 45.2 35.8 3.602 0 7.2-.4 10.802-1.3l154.1-36.5c10 11.1 60.1 65.4 69.2 75-63.7 68.2-127.4 136.3-191.1 204.5-1 1.1-1.9 2.2-2.8 3.3-18.6 23.7-12.9 60.9 15.1 75l33.9 17.3 161.4 82.4-101.4 164.3c-13.9 22.6-6.9 52.2 15.7 66.2 7.9 4.9 16.6 7.2 25.2 7.2 16.1 0 31.898-8.1 41-22.8l128.8-208.7c7.1-11.5 9-25.4 5.3-38.3-3.7-13-12.6-23.8-24.7-29.9l-132.3-67.3 139.1-148.8 105 89c8.7 7.4 19.4 11 30 11 11.4 0 22.8-4.2 31.7-12.4l120.5-112.3c18.8-17.5 19.9-46.9 2.4-65.7-9.2-9.8-21.6-14.8-34-14.8-11.3 0-22.7 4.1-31.6 12.4l-90.2 83.9c-.102.1-226.102-212.5-265.602-253z"/></svg>